<svg width="36" height="36" viewBox="0 0 36 36" fill="none" xmlns="http://www.w3.org/2000/svg">
<g id="Frame 34045">
<g id="file_pdf" clip-path="url(#clip0_159183_22480)">
<path id="Vector" d="M9.53846 6.0152L22 6L28 12.0152V28.5152C28 29.3437 27.3113 30.0152 26.4615 30.0152H9.53846C8.6887 30.0152 8 29.3437 8 28.5152V7.5152C8 6.68668 8.6887 6.0152 9.53846 6.0152Z" fill="#FA4E4E"/>
<path id="Vector_2" d="M21.9286 22.3075C21.1036 22.2463 20.3095 21.9399 19.668 21.3885C18.4156 21.6639 17.2241 22.0622 16.0327 22.5525C15.0859 24.2372 14.1996 25.0947 13.436 25.0947C13.2833 25.0947 13.1 25.0643 12.9777 24.9721C12.6414 24.819 12.4585 24.4818 12.4585 24.1453C12.4585 23.8696 12.5197 23.1036 15.4215 21.8477C16.0938 20.6225 16.613 19.3666 17.0406 18.0496C16.6739 17.3143 15.8799 15.507 16.4295 14.5883C16.6127 14.2511 16.9795 14.0673 17.3769 14.0981C17.6822 14.0981 17.9877 14.2511 18.171 14.4961C18.5681 15.0475 18.5377 16.2115 18.0182 17.9269C18.5072 18.8445 19.1473 19.6731 19.9121 20.3773C20.5536 20.2546 21.1952 20.1627 21.8367 20.1627C23.2726 20.1932 23.4865 20.8669 23.4558 21.2653C23.4561 22.3075 22.4481 22.3075 21.9286 22.3075ZM13.3752 24.2064L13.4668 24.176C13.8944 24.0229 14.2304 23.7165 14.4747 23.3181C14.0167 23.5019 13.6503 23.8081 13.3752 24.2064ZM17.4381 15.0174H17.3465C17.3161 15.0174 17.2549 15.0174 17.2244 15.0478C17.1021 15.5685 17.194 16.1199 17.4077 16.6099C17.5909 16.0895 17.5909 15.5381 17.4381 15.0174ZM17.652 19.4588L17.6216 19.52L17.5912 19.4896C17.3161 20.1941 17.0105 20.8985 16.6748 21.5723L16.736 21.5419V21.603C17.4154 21.3569 18.1089 21.1522 18.8134 20.9904L18.783 20.9597H18.8746C18.4156 20.5002 17.988 19.9795 17.652 19.4588ZM21.8066 21.0823C21.5318 21.0823 21.2874 21.0823 21.0123 21.1435C21.3178 21.2969 21.6234 21.3581 21.9286 21.3888C22.1426 21.4192 22.3565 21.3888 22.5394 21.3273C22.5397 21.2351 22.4174 21.0823 21.8066 21.0823Z" fill="white"/>
<path id="Vector_3" d="M22 6.01562L28 12.0118H23.4605C22.6538 12.0118 22 11.3408 22 10.5128V6.01562Z" fill="#FDB8B8"/>
</g>
</g>
<defs>
<clipPath id="clip0_159183_22480">
<rect width="24" height="24" fill="white" transform="translate(6 6)"/>
</clipPath>
</defs>
</svg>
