<svg width="24" height="24" viewBox="0 0 24 24" fill="none" xmlns="http://www.w3.org/2000/svg">
<g id="file_folder">
<path id="Vector" d="M0 2.99301C0 2.3342 0.537305 1.80005 1.2 1.80005H9.40869C9.88887 1.80005 10.3225 2.0846 10.5117 2.52322L11.1 3.88773H22.8C23.1182 3.88773 23.4234 4.01355 23.6484 4.23723C23.8734 4.46091 24 4.7644 24 5.08069V17.6068C24 17.9231 23.8734 18.2266 23.6484 18.4505C23.4234 18.6742 23.1182 18.8 22.8 18.8H1.2C0.881836 18.8 0.576563 18.6742 0.351562 18.4505C0.126563 18.2266 0 17.9231 0 17.6068V2.99301Z" fill="#FFA000"/>
<path id="Vector_2" d="M3.31222 5.84961H20.888C21.6962 5.84961 22.1001 6.21342 22.1001 6.94052V16.7587C22.1001 17.4861 21.6962 17.8496 20.888 17.8496H3.31222C2.50404 17.8496 2.1001 17.4861 2.1001 16.7587V6.94052C2.1001 6.21342 2.50404 5.84961 3.31222 5.84961Z" fill="white"/>
<path id="Vector_3" d="M1.2 7.80005H22.8C23.6001 7.80005 24 8.18884 24 8.96672V20.6334C24 21.4113 23.6001 21.8 22.8 21.8H1.2C0.399902 21.8 0 21.4113 0 20.6334V8.96672C0 8.18884 0.399902 7.80005 1.2 7.80005Z" fill="#FFCA28"/>
</g>
</svg>
