<svg width="36" height="36" viewBox="0 0 36 36" fill="none" xmlns="http://www.w3.org/2000/svg">
<g id="Frame 34049">
<g id="file_music" clip-path="url(#clip0_159183_22484)">
<path id="Vector" d="M22 6H8.90874C8.40728 6.00127 8.00127 6.40608 8 6.90606V28C8 29 8 30 10 29.9999H26C28.3333 30 27.9987 28.5 28 28V12.0163L22 6Z" fill="#8450EA"/>
<path id="Vector_2" d="M22 10.9999C22.0013 11.4999 22.4073 11.9047 22.9087 11.9059L28.0001 11.9999L22.0001 5.99988L22 10.9999Z" fill="#9C72ED"/>
<path id="Vector_3" d="M22.5907 21.4092V14.5655C22.5907 14.4297 22.5907 14.3383 22.5448 14.2025C22.4086 13.7038 21.9085 13.4323 21.4083 13.568L15.0903 15.3357C14.6818 15.4715 14.4081 15.8345 14.4081 16.2875V22.3152C14.0899 22.2695 13.6814 22.2695 13.3174 22.451C12.5448 22.8139 12.135 23.6299 12.4532 24.2644C12.7256 24.8989 13.6356 25.126 14.4081 24.7631C14.8167 24.5816 15.1349 24.2644 15.2723 23.9027V23.8571C15.3627 23.6299 15.3627 23.3583 15.3182 23.1325V19.6871L21.6361 17.9651V20.6846C21.3179 20.5945 20.9093 20.6389 20.5453 20.8203C19.7728 21.1833 19.363 21.9992 19.6811 22.6337C19.9535 23.2682 20.8635 23.4941 21.6361 23.1325C22.0446 22.951 22.3628 22.5881 22.5003 22.2264V22.1807C22.6365 21.9079 22.6823 21.635 22.5907 21.4092ZM21.6819 16.9677L15.4085 18.6897V17.1479C15.5002 17.1479 15.5905 17.1479 15.6363 17.1022L21.6819 15.4258V16.9677Z" fill="white"/>
</g>
</g>
<defs>
<clipPath id="clip0_159183_22484">
<rect width="24" height="24" fill="white" transform="translate(6 6)"/>
</clipPath>
</defs>
</svg>
