<svg width="36" height="36" viewBox="0 0 36 36" fill="none" xmlns="http://www.w3.org/2000/svg">
<g id="Frame 34046">
<g id="file_unknow" clip-path="url(#clip0_159183_22481)">
<path id="Vector" d="M9.53846 6.0152L22 6L28 12.0152V28.5152C28 29.3437 27.3113 30.0152 26.4615 30.0152H9.53846C8.6887 30.0152 8 29.3437 8 28.5152V7.5152C8 6.68668 8.6887 6.0152 9.53846 6.0152Z" fill="#CCCCCC"/>
<path id="Vector_2" d="M22 6.01562L28 12.0118H23.4605C22.6538 12.0118 22 11.3408 22 10.5128V6.01562Z" fill="#EAEAEA"/>
<path id="Vector_3" d="M14.9268 17.0045C14.9268 16.3894 15.0499 15.8976 15.173 15.59C15.2958 15.2825 15.5421 14.975 15.8496 14.7291C16.1571 14.4216 16.4646 14.2369 16.8952 14.1141C17.2643 13.9909 17.6331 13.9297 18.0637 13.9297C18.9247 13.9297 19.6012 14.1756 20.2163 14.6675C20.7697 15.1597 21.0772 15.7744 21.0772 16.5741C21.0772 16.9432 20.9544 17.2507 20.8313 17.5582C20.7081 17.8657 20.4006 18.2348 19.9087 18.6651C19.4166 19.0958 19.2322 19.403 19.0478 19.5876C18.8634 19.7723 18.8018 20.0183 18.6787 20.2642C18.5556 20.5105 18.6172 20.6949 18.6172 21.3099H17.3871C17.3871 20.6949 17.4487 20.3873 17.5099 20.0798C17.5715 19.7723 17.6943 19.5264 17.879 19.2804C18.0634 19.0345 18.2481 18.727 18.6784 18.2964C19.109 17.8657 19.4163 17.5585 19.5394 17.3738C19.6625 17.1894 19.7853 16.8819 19.7853 16.4513C19.7853 16.0207 19.6009 15.7132 19.2934 15.4057C18.9859 15.0982 18.5553 14.9135 18.0018 14.9135C16.7718 14.9135 16.1568 15.7744 16.1568 17.0045H14.9268ZM18.6169 23.7696H17.3868V22.5396H18.6169V23.7696Z" fill="white"/>
</g>
</g>
<defs>
<clipPath id="clip0_159183_22481">
<rect width="24" height="24" fill="white" transform="translate(6 6)"/>
</clipPath>
</defs>
</svg>
