<svg fill="none" xmlns="http://www.w3.org/2000/svg" viewBox="0 0 32 32" class="design-iconfont">
  <path d="M7.53846 4.0152L20 4L26 10.0152V26.5152C26 27.3437 25.3113 28.0152 24.4615 28.0152H7.53846C6.6887 28.0152 6 27.3437 6 26.5152V5.5152C6 4.68668 6.6887 4.0152 7.53846 4.0152Z" fill="#4876F9"/>
  <path d="M20 4.01562L26 10.0118H21.4605C20.6538 10.0118 20 9.34077 20 8.51278V4.01562Z" fill="#fff" fill-opacity=".5"/>
  <path d="M15.9997 13.8752L14.3498 15.5251L15.1747 16.3501L16.8246 14.7002C17.5052 14.0196 18.6189 14.0196 19.2995 14.7002C19.9801 15.3807 19.9801 16.4944 19.2995 17.175L17.6496 18.8249L18.4746 19.6499L20.1245 18C21.2629 16.8615 21.2629 15.0136 20.1245 13.8752C18.986 12.7368 17.1381 12.7368 15.9997 13.8752ZM16.8246 19.6499L15.1747 21.2998C14.4941 21.9804 13.3804 21.9804 12.6999 21.2998C12.0193 20.6192 12.0193 19.5055 12.6999 18.8249L14.3498 17.175L13.5248 16.3501L11.8749 18C10.7365 19.1384 10.7365 20.9863 11.8749 22.1248C13.0133 23.2632 14.8612 23.2632 15.9997 22.1248L17.6496 20.4749L16.8246 19.6499ZM13.9373 19.2374L17.2371 15.9376L18.0621 16.7625L14.7622 20.0624L13.9373 19.2374Z" fill="#fff"/>
</svg>
