<svg width="36" height="36" viewBox="0 0 36 36" fill="none" xmlns="http://www.w3.org/2000/svg">
<g id="Frame 34047">
<g id="file_zip">
<path id="Vector" d="M15 14.2003V13.0002L16.1933 13L16.1931 14.2003L17.3866 14.2001V15.4002H16.1933L16.1931 16.6H17.3866V17.8001H16.1933L16.1931 19H17.3863V22H15V19V17.7999L16.1933 17.8001L16.1931 16.6H15V15.4002H16.1933L16.1931 14.2003H15Z" fill="white"/>
<path id="Vector_2" d="M9.53846 6.0152L22 6L28 12.0152V28.5152C28 29.3437 27.3113 30.0152 26.4615 30.0152H9.53846C8.6887 30.0152 8 29.3437 8 28.5152V7.5152C8 6.68668 8.6887 6.0152 9.53846 6.0152Z" fill="#576A95"/>
<path id="Vector_3" d="M22 6.01562L28 12.0118H23.4605C22.6538 12.0118 22 11.3408 22 10.5128V6.01562Z" fill="#BBC3D4"/>
<path id="Vector_4" d="M19.3826 21.1171V24.458C19.3826 24.6796 19.2943 24.8919 19.1372 25.0484C18.9802 25.2051 18.7676 25.2931 18.5456 25.2928H16.8369C16.615 25.2928 16.4024 25.2048 16.2453 25.0484C16.0883 24.8919 16.0003 24.6793 16.0003 24.4577V21.1171H19.3826ZM18.5456 23.0312H16.8369V24.7087H18.5456V23.0312ZM19.3547 17.7766V19.4541H17.6742V17.7766H19.3547ZM17.6949 6V7.69129H19.3826V9.38258H17.6946V10.9486H19.3826V12.6399H17.6949V14.3105H19.3826V15.9811H17.6949V17.6514H16V15.9808H17.6877V14.3102H16V12.6399H17.6877V10.9486H16V9.25736H17.6877V7.69129H16V6H17.6949Z" fill="white"/>
</g>
</g>
</svg>
