<svg width="36" height="36" viewBox="0 0 36 36" fill="none" xmlns="http://www.w3.org/2000/svg">
<g id="Frame 34048">
<g id="file_pic">
<path id="Vector" d="M15 14.2003V13.0002L16.1933 13L16.1931 14.2003L17.3866 14.2001V15.4002H16.1933L16.1931 16.6H17.3866V17.8001H16.1933L16.1931 19H17.3863V22H15V19V17.7999L16.1933 17.8001L16.1931 16.6H15V15.4002H16.1933L16.1931 14.2003H15Z" fill="white"/>
<path id="Vector_2" d="M9.53846 6.0152L22 6L28 12.0152V28.5152C28 29.3437 27.3113 30.0152 26.4615 30.0152H9.53846C8.6887 30.0152 8 29.3437 8 28.5152V7.5152C8 6.68668 8.6887 6.0152 9.53846 6.0152Z" fill="#F6AD00"/>
<path id="Vector_3" d="M22 6.01562L28 12.0118H23.4605C22.6538 12.0118 22 11.3408 22 10.5128V6.01562Z" fill="white" fill-opacity="0.7"/>
<path id="Vector_4" d="M12.0608 23.2168L14.3025 19.9223C14.3605 19.8367 14.4536 19.7814 14.5566 19.7715C14.6596 19.7613 14.7614 19.7973 14.8352 19.87L16.3166 21.3214L19.5668 16.2268C19.6322 16.1238 19.7467 16.0628 19.8686 16.0655C19.9905 16.0682 20.1019 16.1346 20.1629 16.2403L24.2013 23.2391C24.2638 23.3469 24.2638 23.4799 24.2016 23.5877C24.1391 23.6955 24.0241 23.7619 23.8995 23.7619H12.3491C12.2199 23.7622 12.101 23.6907 12.0403 23.5763C11.98 23.4622 11.9878 23.3238 12.0608 23.2168Z" fill="#FFF7F7"/>
<path id="Vector_5" d="M12.7319 15.7574C12.7319 16.7279 13.5187 17.5147 14.4893 17.5147C15.4599 17.5147 16.2463 16.7279 16.2463 15.7574C16.2463 14.7868 15.4596 14 14.4893 14C13.5187 14 12.7319 14.7868 12.7319 15.7574Z" fill="white"/>
</g>
</g>
</svg>
