<svg width="36" height="36" viewBox="0 0 36 36" fill="none" xmlns="http://www.w3.org/2000/svg">
<g id="Frame 34050">
<g id="file_video">
<path id="Vector" d="M8 7.99922C8 7.46882 8.21466 6.96002 8.59616 6.58562C8.98466 6.20762 9.50032 5.99762 10.0358 6.00002H21.9999L28 12V28.0212C28 28.5468 27.7888 29.0496 27.4097 29.4216C27.0247 29.7948 26.5148 30.0024 25.9852 29.9988H10.0136C8.90183 30 8 29.1144 8 28.0212V7.99922Z" fill="#1F3858" fill-opacity="0.8"/>
<path id="Vector_2" d="M27.9916 12H24.0274C22.9074 11.9988 21.9985 11.1048 21.9985 10.002V6L27.9916 12Z" fill="#2B405C"/>
<path id="Vector_3" d="M20.9805 19.2068L16.3385 22.5483C16.0493 22.7564 15.6499 22.6837 15.4475 22.3862C15.3723 22.2757 15.332 22.1439 15.332 22.0086V15.3255C15.332 14.9626 15.6177 14.6679 15.9714 14.667C16.103 14.667 16.2311 14.7084 16.3385 14.7858L20.9805 18.1282C21.2697 18.3364 21.3405 18.7472 21.1372 19.0447C21.0951 19.1073 21.0423 19.1626 20.9805 19.2068Z" fill="white"/>
</g>
</g>
</svg>
