<svg width="36" height="36" viewBox="0 0 36 36" fill="none" xmlns="http://www.w3.org/2000/svg">
<g id="Frame 34044">
<g id="file_word" clip-path="url(#clip0_159183_22478)">
<path id="Vector" d="M9.53846 6.0152L22 6L28 12.0152V28.5152C28 29.3437 27.3113 30.0152 26.4615 30.0152H9.53846C8.6887 30.0152 8 29.3437 8 28.5152V7.5152C8 6.68668 8.6887 6.0152 9.53846 6.0152Z" fill="#4876F9"/>
<path id="Vector_2" d="M22 6.01562L28 12.0118H23.4605C22.6538 12.0118 22 11.3408 22 10.5128V6.01562Z" fill="white" fill-opacity="0.5"/>
<path id="x" d="M14.8066 24.0117L12.2676 15.7148H13.7207L15.5332 22.2852C15.554 22.1966 15.6973 21.6263 15.9629 20.5742L17.2832 15.7148H18.7285L19.9707 20.5273L20.3848 22.1133L20.8613 20.5117L22.2832 15.7148H23.6504L21.0566 24.0117H19.5957L18.2754 19.043L17.9551 17.6289L16.2754 24.0117H14.8066Z" fill="white"/>
</g>
</g>
<defs>
<clipPath id="clip0_159183_22478">
<rect width="24" height="24" fill="white" transform="translate(6 6)"/>
</clipPath>
</defs>
</svg>
