<svg width="36" height="36" viewBox="0 0 36 36" fill="none" xmlns="http://www.w3.org/2000/svg">
<g id="Frame 34044">
<g id="file_pdf" clip-path="url(#clip0_159183_22479)">
<path id="Vector" d="M9.53846 6.0152L22 6L28 12.0152V28.5152C28 29.3437 27.3113 30.0152 26.4615 30.0152H9.53846C8.6887 30.0152 8 29.3437 8 28.5152V7.5152C8 6.68668 8.6887 6.0152 9.53846 6.0152Z" fill="#4CB050"/>
<path id="Vector_2" d="M22 6.01562L28 12.0118H23.4605C22.6538 12.0118 22 11.3408 22 10.5128V6.01562Z" fill="white" fill-opacity="0.5"/>
<path id="x" d="M14.1191 24.0117L17.1504 19.6992L14.3457 15.7148H16.1035L17.377 17.6602C17.6165 18.0299 17.8092 18.3398 17.9551 18.5898C18.1842 18.2461 18.3952 17.9414 18.5879 17.6758L19.9863 15.7148H21.666L18.7988 19.6211L21.8848 24.0117H20.1582L18.4551 21.4336L18.002 20.7383L15.8223 24.0117H14.1191Z" fill="white"/>
</g>
</g>
<defs>
<clipPath id="clip0_159183_22479">
<rect width="24" height="24" fill="white" transform="translate(6 6)"/>
</clipPath>
</defs>
</svg>
